<?xml version="1.0" encoding="utf-8"?>
<!-- Uploaded to: SVG Repo, www.svgrepo.com, Generator: SVG Repo Mixer Tools -->
<svg width="800px" height="800px" viewBox="0 -56.07 457.888 457.888" xmlns="http://www.w3.org/2000/svg"><defs><style>.a{fill:#f3736f;}.b{fill:#ffffff;}.c{fill:#211715;}.d{fill:#f4b3b3;}.e{fill:#b5886a;}.f{fill:#7a7473;}.g{fill:#fcd8d7;}.h{fill:#f8b1af;}</style></defs><path class="a" d="M130.106,184a182.437,182.437,0,0,0-25.077,19.524A23.55,23.55,0,0,1,94.363,208.8c-9.294,2.2-27.22,6.8-34.539,8.678-9.031,2.322-18.22,5.469-25.086,11.777-12.159,11.17-13.4,29.527-13.614,46.116a57.6,57.6,0,0,0,2.189,16.9C26.81,304.24,35.527,310.866,50.4,311.9l80.148.778c50.96-.04,127.2-.86,177.347-.32l72.111-2.309a30.048,30.048,0,0,0,11.942-7.111c3.139-3.007,5.754-6.593,8.008-14.593,2.983-10.591,3.156-23.981,1.369-37.539-.363-2.755-.822-6.017-1.432-9.871-.986-6.228-2.326-13.9-4.255-19.738a105.024,105.024,0,0,0-11.069-22.851,35.256,35.256,0,0,0-5.354-6.52,24.268,24.268,0,0,0-12.963-7.777c-9.579-2.185-45.316,1.293-66.815,6.814C237.81,206.266,177.785,167.6,145.958,175.784,138.18,177.784,130.106,184,130.106,184Z"/><path class="b" d="M23.774,248.944c1.914-7.536,5.222-14.413,10.964-19.687a44.055,44.055,0,0,1,13.48-8.216c4.014.611,8.787,1.394,12.884,2.277a13,13,0,0,1,3.16.837c.977.492,2.307,1.537,1.7,3.371A73.5,73.5,0,0,1,58,244.623a11.133,11.133,0,0,1-6.612,5.091c-9.888,2.634-20.623,2.255-28.342,2.433Q23.373,250.529,23.774,248.944Z"/><path class="c" d="M64.029,226.994a67.276,67.276,0,0,1-5.068,11.945c-1.869,3.458-3.687,7.485-7.74,8.743-8.467,2.63-17.76,2.313-26.523,2.436-2.571.037-2.579,4.037,0,4,7.451-.1,14.908-.129,22.275-1.4,3.627-.626,7.2-1.375,10.055-3.837,2.755-2.375,4.441-6.066,6.087-9.243a71.761,71.761,0,0,0,4.771-11.58c.771-2.462-3.089-3.515-3.857-1.063Z"/><path class="c" d="M46.088,232.9c-.254,1.273-.411,2.564-.641,3.84-.128.712-.269,1.423-.451,2.123-.081.309-.169.617-.274.92-.045.128-.1.254-.144.381.257-.694.079-.192-.014-.019a2,2,0,0,0,3.454,2.019,14.333,14.333,0,0,0,1.267-4.256c.239-1.311.4-2.637.66-3.944a2,2,0,0,0-3.857-1.064Z"/><path class="c" d="M130.55,314.673c22.756-.018,45.511-.16,68.267-.276,24.28-.125,48.56-.244,72.84-.225q18.12.013,36.24.181c2.574.028,2.576-3.972,0-4-22.562-.241-45.126-.208-67.688-.138q-36.5.115-73,.342-18.328.085-36.656.116c-2.573,0-2.578,4,0,4Z"/><path class="c" d="M377.8,193.236a46.56,46.56,0,0,1,7.689,10.546,104.325,104.325,0,0,1,5.81,11.5c3.436,8.136,5.148,16.711,6.54,25.395,1.458,9.1,2.69,18.249,2.634,27.488-.051,8.532-.973,17.514-4.433,25.409a26.609,26.609,0,0,1-16.567,14.543c-2.459.737-1.411,4.6,1.064,3.857a30.928,30.928,0,0,0,17.4-13.325c4.423-7.468,5.878-16.726,6.376-25.26.573-9.84-.482-19.609-1.926-29.33-1.347-9.061-2.784-18.21-6.025-26.818a102.823,102.823,0,0,0-6.681-14.189c-2.573-4.568-5.261-8.966-9.049-12.644-1.848-1.794-4.679,1.031-2.828,2.829Z"/><path class="c" d="M50.4,309.9c-5.791-.421-11.641-1.791-16.448-5.182a23.427,23.427,0,0,1-8.526-12.349c-2.385-7.633-2.45-15.508-2.152-23.42a91.279,91.279,0,0,1,2.595-20.115c1.658-6.222,4.429-12.2,8.955-16.868,5.175-5.332,12.079-8.5,19.067-10.716,5.471-1.739,11.1-3.029,16.66-4.446q9.237-2.354,18.488-4.649c2.816-.693,5.709-1.247,8.465-2.154a26.866,26.866,0,0,0,9.852-5.892,184.352,184.352,0,0,1,19.1-15.274q2.3-1.592,4.66-3.1c2.16-1.387.156-4.85-2.019-3.454a181.061,181.061,0,0,0-19.674,14.691c-3.17,2.706-6.075,5.96-9.822,7.872-2.926,1.493-6.157,2.12-9.324,2.892-6.327,1.541-12.641,3.139-18.952,4.745-5.7,1.449-11.455,2.782-17.087,4.478-7.5,2.258-14.9,5.43-20.759,10.75a39.547,39.547,0,0,0-10.687,17.408,83.538,83.538,0,0,0-3.384,20.97c-.438,8.015-.58,16.1,1.253,23.969,1.379,5.914,3.9,11.615,8.414,15.812a30.83,30.83,0,0,0,15.987,7.4c1.768.3,3.553.5,5.341.634,2.568.187,2.557-3.814,0-4Z"/><path class="b" d="M230.946,160.569c-11.13.677-20.908,1.541-31.362,4.4-19.222,4.667-38.038,13.011-52.333,22.556-11.524,7.694-18.157,14.741-25.78,23.657a2.351,2.351,0,0,0,1.747,3.884c11.619.137,29.925-.108,49.019-.523,19.473-.424,62.163-2.039,77.013-2.59,25.024-1.409,88.95-4.9,111.671-9.267a1.157,1.157,0,0,0,.688-1.844C350.3,185.9,325.727,175.045,308,168.976c-11.51-3.94-23.58-6.01-35.68-7.25q-11.482-1.174-23.017-1.373l-14.635,0Q232.779,160.458,230.946,160.569Z"/><path class="c" d="M233.915,220.327c-1.1,7.7-2.086,15.386-2.42,23.165-.392,9.155-.586,18.315-.648,27.478q-.051,7.684-.04,15.371c0,2.573,4,2.578,4,0,0-9.112,0-18.225.191-27.334.163-7.929.3-15.91,1.036-23.81.43-4.619,1.084-9.215,1.738-13.806a2.068,2.068,0,0,0-1.4-2.461,2.015,2.015,0,0,0-2.46,1.4Z"/><path class="c" d="M123.563,225.672a64.011,64.011,0,0,0-2.979,20.185,152.422,152.422,0,0,0,1.594,21.681,2.014,2.014,0,0,0,2.46,1.4,2.051,2.051,0,0,0,1.4-2.46,144.977,144.977,0,0,1-1.451-20.618,58.267,58.267,0,0,1,.462-9.235,64.908,64.908,0,0,1,2.374-9.886c.792-2.456-3.069-3.508-3.857-1.064Z"/><path class="c" d="M142.847,298.719c7.591.04,15.183.023,22.775.015q17.892-.019,35.783-.066,19.567-.047,39.134-.1l33.172-.1q8.906-.027,17.811-.051h.658c2.574,0,2.578-4,0-4-5.078,0-10.156.026-15.233.041l-31.906.095q-19.457.057-38.914.105-18.3.045-36.591.073c-8.3.011-16.6.026-24.9,0l-1.789-.007c-2.575-.014-2.578,3.986,0,4Z"/><path class="c" d="M338.211,217.983a139.92,139.92,0,0,1,4.921,14.969c1.623,5.549,3.188,11.128,4.491,16.762.216.933.427,1.868.6,2.81.033.184.059.37.092.553.045.245.066-.48-.014-.09-.016.08.067.253.021.323,0,.007,0,.095,0,.094-.161-.3.529-1.243.54-1.255l1.414-.586c-8.634.261-17.037.726-25.037,4.333a30.012,30.012,0,0,0-15.078,14.324c-1.124,2.3,2.324,4.335,3.454,2.019a25.881,25.881,0,0,1,6.149-8.289,30.269,30.269,0,0,1,7.973-4.812,41.522,41.522,0,0,1,12.358-3.08c1.928-.194,3.864-.3,5.8-.365.935-.034,1.87-.059,2.806-.085,1-.028,2.217.136,2.989-.631.985-.979.579-2.51.357-3.7-.311-1.674-.719-3.331-1.128-4.983-1.243-5.018-2.629-10-4.088-14.962a136.382,136.382,0,0,0-4.757-14.409,2.067,2.067,0,0,0-2.46-1.4,2.012,2.012,0,0,0-1.4,2.46Z"/><path class="c" d="M199.638,231.957c.251,2.673,2.2,4.057,4.752,4.057h4.893c3.661,0,7.323.035,10.984,0a4.529,4.529,0,0,0,2.852-.881c1.994-1.553,1.58-4.045,1.535-6.281-.052-2.571-4.052-2.58-4,0l.051,2.452c0,.233.122.568-.087.707-.108.072-.491,0-.612,0H205.644a8.413,8.413,0,0,1-2.006-.057,2.055,2.055,0,0,0-2-2,2.015,2.015,0,0,0-2,2Z"/><path class="c" d="M325.753,231.856c-.039-1.918.268-4.142-1.1-5.689a4.3,4.3,0,0,0-3.2-1.39c-1.291-.039-2.589,0-3.881,0H305.731c-2.093,0-4.16.545-4.921,2.8a7.581,7.581,0,0,0-.183,2.691,9.723,9.723,0,0,0,.3,3.026,4.189,4.189,0,0,0,3.876,2.72c3.211.129,6.454,0,9.667,0h6.139c.339,0,.683.016,1.022,0a4.214,4.214,0,0,0,4.119-4.158c.124-2.573-3.876-2.567-4,0-.018.384-5.649.158-6.148.158h-9.894a2.694,2.694,0,0,1-.887,0c-.393-.206-.184-1.3-.2-1.746-.013-.435-.29-1.293.135-1.491a3.087,3.087,0,0,1,.969,0h14.923c.188,0,.736-.1.905,0,.053.032.082.022.132.075.139.145.022,1.09.027,1.308q.018.847.035,1.7C321.806,234.427,325.806,234.435,325.753,231.856Z"/><path class="c" d="M147.806,219.536a20.133,20.133,0,0,0-2.375,2.458,17.815,17.815,0,0,0-1.272,1.709,4.528,4.528,0,0,0-.864,2.265,2.385,2.385,0,0,0,1.163,2.071,4.13,4.13,0,0,0,1.682.437q.981.123,1.971.173c.734.038,1.469.051,2.2.049a10.566,10.566,0,0,0,1.356-.049,2.448,2.448,0,0,0,1.875-1.222,4.586,4.586,0,0,0,.384-1.465q.1-.6.23-1.207.26-1.224.628-2.421a2.02,2.02,0,0,0-1.4-2.461,2.043,2.043,0,0,0-2.461,1.4,29.149,29.149,0,0,0-.847,3.56,6.014,6.014,0,0,0-.138.86c0,.266-.572.649.5-.426-.188.188.584-.753.81-.576-.082-.065-.481.007-.585.008-.616,0-1.233,0-1.849-.018q-.857-.025-1.709-.1c-.264-.023-.528-.051-.792-.082-.081-.01-.359-.048-.035,0,.362.051.054.021.026,0s-.308-.113.056.047q.543.178.52.922.233,1.349.413.742c.013-.041-.217.46-.119.287.021-.037.037-.079.056-.117q.072-.144.15-.282c.114-.2.237-.4.367-.59s.266-.379.4-.565c.209-.281-.265.326-.04.054.1-.116.189-.234.286-.349a20.3,20.3,0,0,1,2.23-2.284,2.01,2.01,0,0,0,0-2.828,2.05,2.05,0,0,0-2.828,0Z"/><path class="c" d="M152.859,221.8a28.727,28.727,0,0,0-.972,4.333.8.8,0,0,1-.127.383.547.547,0,0,1-.356.167,34.346,34.346,0,0,1-5.625-.258.568.568,0,0,1-.461-.287.615.615,0,0,1,.053-.461,16.411,16.411,0,0,1,3.849-4.729Z"/><path class="a" d="M143.816,205.116a8.338,8.338,0,0,1,1.453-5.068,10.19,10.19,0,0,1,6.07-3.329l2.868-.1a4.674,4.674,0,0,1,3.9,2.906c.627,2.359.3,7.726.36,8.771a74.524,74.524,0,0,1-.27,10.511c-.166,1.437-1.149,2.96-3.652,2.441s-6.141-.992-7.286-2.372A13.459,13.459,0,0,1,145,213.25,58.866,58.866,0,0,1,143.816,205.116Z"/><path class="c" d="M145.816,205.116c.039-1.942.532-3.766,2.168-4.91a7.673,7.673,0,0,1,4.209-1.516c1.383-.048,2.57-.32,3.6.819s.7,3.488.707,4.9c.011,3.588.123,7.2-.032,10.785a30.092,30.092,0,0,1-.236,3.328c-.1.63-.224.838-.909.832a16.457,16.457,0,0,1-3-.568,12.583,12.583,0,0,1-3.053-.878c-1.774-.888-2.185-4.266-2.529-6.057a37.9,37.9,0,0,1-.935-6.73c-.022-2.573-4.022-2.579-4,0a44.008,44.008,0,0,0,1.078,7.794c.526,2.738,1.3,6.276,3.695,8.02,2.131,1.551,5.3,1.922,7.831,2.315a4.74,4.74,0,0,0,5.709-3.905c.8-4.822.379-9.9.376-14.776,0-2.5.141-5.475-1.544-7.506a6.9,6.9,0,0,0-5.95-2.4,12.618,12.618,0,0,0-7.046,2.091c-2.877,1.95-4.08,4.95-4.149,8.364C141.764,207.691,145.764,207.691,145.816,205.116Z"/><path class="c" d="M67.886,228.057a4.511,4.511,0,0,0-1.447-4.84c-1.521-1.253-3.371-1.525-5.241-1.92-3.878-.82-7.792-1.466-11.709-2.07a2.063,2.063,0,0,0-2.46,1.4,2.016,2.016,0,0,0,1.4,2.46c3.318.512,6.631,1.057,9.925,1.706a29.972,29.972,0,0,1,4.693,1.013,3.727,3.727,0,0,1,.587.291c.031.018.318.222.18.113s.139.136.163.163c.05.055.083.055.112.143.085.251.037-.169.024.123-.012.269.06-.132-.081.358-.713,2.479,3.146,3.537,3.857,1.063Z"/><path class="c" d="M95.415,273.074c-20.828,0-35.225,16.132-35.225,35.009,0,21.852,13.626,35.666,35.227,35.666,22.1,0,35.227-13.814,35.227-35.666C130.644,289.077,116.171,273.074,95.415,273.074Z"/><path class="c" d="M342.934,273.074c-20.829,0-35.226,16.132-35.226,35.009,0,21.852,13.626,35.666,35.227,35.666,22.1,0,35.227-13.814,35.227-35.666C378.162,289.077,363.69,273.074,342.934,273.074Z"/><path class="c" d="M95.415,271.074a37.843,37.843,0,0,0-23.167,7.742,36.548,36.548,0,0,0-12.626,18.862c-4.074,14.413.1,31.85,12.365,41.035,5.944,4.453,13.33,6.543,20.673,6.959,7.733.438,15.779-.814,22.639-4.541,13.308-7.23,18.875-23.2,17.051-37.7a37.282,37.282,0,0,0-9.794-21.05,36.336,36.336,0,0,0-20.544-10.761,43.127,43.127,0,0,0-6.6-.544c-2.574-.012-2.577,3.988,0,4a33.866,33.866,0,0,1,20.714,6.845,32.56,32.56,0,0,1,11.264,16.931c3.467,12.455.281,28.221-10.314,36.381-5.292,4.075-11.936,6.011-18.534,6.423-6.961.433-14.2-.507-20.427-3.794-12.239-6.457-17.206-20.675-15.695-33.915a32.358,32.358,0,0,1,27.27-28.438,36.051,36.051,0,0,1,5.722-.433C97.989,275.062,97.994,271.062,95.415,271.074Z"/><path class="b" d="M95.416,295.982A12.148,12.148,0,0,0,83.027,308.3c0,7.686,4.792,12.544,12.39,12.544,7.774,0,12.39-4.858,12.39-12.544A12.139,12.139,0,0,0,95.416,295.982Z"/><path class="c" d="M342.934,271.074a37.848,37.848,0,0,0-23.168,7.742,36.548,36.548,0,0,0-12.626,18.862c-4.073,14.413.106,31.85,12.366,41.035,5.943,4.453,13.329,6.543,20.672,6.959,7.733.438,15.78-.814,22.64-4.541,13.307-7.23,18.874-23.2,17.051-37.7a37.284,37.284,0,0,0-9.8-21.05,36.33,36.33,0,0,0-20.544-10.761,43.125,43.125,0,0,0-6.6-.544c-2.574-.012-2.578,3.988,0,4a33.868,33.868,0,0,1,20.714,6.845,32.564,32.564,0,0,1,11.263,16.931c3.468,12.455.282,28.221-10.314,36.381-5.291,4.075-11.935,6.011-18.533,6.423-6.962.433-14.2-.507-20.427-3.794-12.239-6.457-17.206-20.675-15.695-33.915a32.358,32.358,0,0,1,27.269-28.438,36.064,36.064,0,0,1,5.723-.433C345.507,275.062,345.513,271.062,342.934,271.074Z"/><path class="b" d="M342.935,295.982a12.149,12.149,0,0,0-12.39,12.314c0,7.686,4.793,12.544,12.39,12.544,7.775,0,12.39-4.858,12.39-12.544A12.138,12.138,0,0,0,342.935,295.982Z"/><path class="c" d="M418.794,294.865c7.5-.007,14.993-.349,22.49-.159,2.575.065,2.573-3.935,0-4-7.5-.19-14.993.152-22.49.159-2.574,0-2.578,4,0,4Z"/><path class="c" d="M417.958,309.3c12.667-.006,25.335-.12,38-.407,2.57-.059,2.58-4.059,0-4-12.664.287-25.332.4-38,.407-2.574,0-2.578,4,0,4Z"/><path class="b" d="M313.634,155.694c.9-1.043,1.751-2.05,2.538-3a14.474,14.474,0,0,1-2.843-.8,2.361,2.361,0,0,1-1.168-1.048,2.914,2.914,0,0,1-.193-.828c-.174-1.313-.614-7.15-.788-8.463l-14.667-1-.151-.01-.428,2.881a7.058,7.058,0,0,1-1.2,3.432,6.138,6.138,0,0,1-1.648,1.3,27.864,27.864,0,0,1-4.06,1.607.37.37,0,0,1,.031.059c.533,1.026,1.547,3.109,2.751,5.579,2.083,4.275,4.738,9.712,6.471,12.851a1.993,1.993,0,0,0,3.113.488C305.346,165,309.889,160.039,313.634,155.694Z"/><path class="b" d="M366.574,173.629c-.715-5.37-1.624-11.924-2-15.623,0,0-.036-.362-.08-.876,2.931-4.23,3.3-9.63,2.449-13.772-.66-3.226-1.11-6.819-3.719-8.828-1.438-1.108-4.24-1.273-5.557-.024-1.025-1.307-3.425-1.908-4.685-1.87-1.222.037-2.166,1.015-3.037,1.926-1.129-1.168-4.712-1.129-6.148-.37s-2.254,3.52-1.926,5.111l-.006.6a6.1,6.1,0,0,0-1.262.691c-1.635,1.145-2.341,3.21-2.679,5.177a14.031,14.031,0,0,0,1.41,9.678c2.5,4.081,7.447,5.825,12.009,7.28a61.406,61.406,0,0,1-.213,13.612l-.117,1.041c5.567,1.273,10.9,2.432,16.467,3.427-.12-.987-.2-1.653-.2-1.653C367.105,177.657,366.854,175.734,366.574,173.629Z"/><path class="d" d="M271.035,198.383c0,1.513.367,9.461.367,10.957l52.852-2.926c.243-4.221.744-10.123,1.278-15.8l.278.249c7.9,8.361,15.41,14.138,26.222,18.074a13.253,13.253,0,0,0,6.37.445,11.633,11.633,0,0,0,4.889-3.408c5.389-7.175,7.493-15.469,8.025-23.33a1.3,1.3,0,0,0-1.093-1.358c-6.786-1.128-13.122-2.5-19.82-4.04a1.448,1.448,0,0,0-1.708,1c-.127.427-.251.823-.375,1.2-2.485-2.558-4.891-5.03-4.891-5.03-4.387-4.24-7.369-11.124-11.687-15.445-4.107-2.969-10.609-5.444-15.276-6.629a186.616,186.616,0,0,1-16.889,18.074c-2.074-2.815-9.927-19.687-10.842-21.166-5.454.5-11.729,1.145-17.329,3.243-1.953.732-3.828,1.653-5.7,2.572l-7.528,3.7,12.94,18.131C270.943,183.655,271.007,191.081,271.035,198.383Z"/><path class="c" d="M353.133,176.34a73.518,73.518,0,0,0,.213-13.612,2.082,2.082,0,0,0-1.468-1.928c-3.031-.97-6.28-1.984-8.767-4.054-2.82-2.347-3.694-5.758-3.4-9.316a8.875,8.875,0,0,1,1.34-4.516c1-1.322,2.515-1.461,4.045-1.375.485.027.829-.058,1.121.227a2.079,2.079,0,0,1,.623,1.58c-.175,1.225-1.882,1.6-2.871,1.639-2.567.095-2.579,4.095,0,4,3.73-.138,7.561-2.744,6.755-6.909a5.612,5.612,0,0,0-3.577-4.258,10.082,10.082,0,0,0-5.4.012c-4.281,1.295-5.7,5.559-6.036,9.6a14.334,14.334,0,0,0,3.776,11.415c3.045,3.067,7.3,4.525,11.323,5.812l-1.468-1.929a73.518,73.518,0,0,1-.213,13.612,2.012,2.012,0,0,0,2,2,2.047,2.047,0,0,0,2-2Z"/><path class="c" d="M343.8,138.771c-.161-.994.423-2.63,1.191-2.91.886-.323,2.968-.4,3.541.115a2.034,2.034,0,0,0,2.828,0c.693-.72,1.229-1.446,2.286-1.3a4.137,4.137,0,0,1,2.608,1.249,2.04,2.04,0,0,0,2.828,0,2.645,2.645,0,0,1,2.244-.133,3.621,3.621,0,0,1,1.9,1.751c1.148,1.969,1.446,4.455,1.855,6.664.81,4.371-.044,9.318-2.97,12.763-1.657,1.952,1.159,4.794,2.829,2.829,4.379-5.157,4.985-11.641,3.722-18.055-.594-3.014-1.331-6.267-3.737-8.4a6.757,6.757,0,0,0-8.666-.253h2.828a8.022,8.022,0,0,0-5.074-2.38c-2.3-.291-3.94.839-5.476,2.436h2.828c-1.981-1.793-5.489-1.9-7.9-.98-2.935,1.126-3.986,4.81-3.522,7.666a2.015,2.015,0,0,0,2.46,1.4,2.047,2.047,0,0,0,1.4-2.46Z"/><path class="c" d="M362.577,158.006c.721,7.071,1.868,14.092,2.7,21.149a2.062,2.062,0,0,0,2,2,2.013,2.013,0,0,0,2-2c-.836-7.057-1.983-14.078-2.7-21.149a2.056,2.056,0,0,0-2-2,2.014,2.014,0,0,0-2,2Z"/><path class="c" d="M324.4,192.273a77.943,77.943,0,0,0,15.864,13.264,62.824,62.824,0,0,0,9.511,4.667c2.916,1.153,6.586,2.07,9.663.942,3.3-1.208,5.532-3.836,7.34-6.722a41.557,41.557,0,0,0,4.642-10.519,53.451,53.451,0,0,0,1.858-10.675,3.46,3.46,0,0,0-3-3.959c-2.138-.4-4.282-.754-6.416-1.172q-3.516-.69-7.014-1.46-1.765-.386-3.528-.785a14.141,14.141,0,0,0-3.381-.633c-2.432.073-3.039,2.215-3.682,4.117-.619,1.832-1.277,3.637-1.775,5.507-.663,2.49,3.194,3.553,3.857,1.064.364-1.37.8-2.713,1.267-4.05.231-.655.464-1.309.679-1.97.027-.083.374-1.1.346-1.112l-.538.428a7.539,7.539,0,0,0,.74.183c3.579.855,7.186,1.612,10.793,2.336q2.591.519,5.19.987c.247.044,2.857.573,2.883.5l-.187-.286q-.284-.62-.216.109a7.781,7.781,0,0,0-.138,1.58,46.477,46.477,0,0,1-1.829,9.021,37.182,37.182,0,0,1-4,8.771c-1.265,2.018-2.972,4.426-5.449,5.043-2.568.641-5.264-.376-7.6-1.327a56.567,56.567,0,0,1-7.83-3.941,73.534,73.534,0,0,1-15.215-12.736c-1.775-1.871-4.6.961-2.829,2.829Z"/><path class="c" d="M288.735,147.248A78.045,78.045,0,0,0,273,149.841c-5.521,1.688-10.67,4.656-15.834,7.192-2.311,1.134-.286,4.585,2.019,3.454,4.853-2.384,9.69-5.2,14.879-6.789a72.643,72.643,0,0,1,14.668-2.45,2.054,2.054,0,0,0,2-2,2.014,2.014,0,0,0-2-2Z"/><path class="c" d="M294.006,142.9c-.07.42-.14.84-.236,1.255-.048.207-.1.412-.165.615-.029.091-.064.181-.092.272-.12.39.213-.419.029-.056-.086.169-.169.338-.271.5-.03.048-.062.095-.1.141q-.13.186.141-.176c-.071.035-.141.161-.195.218s-.137.137-.209.2c-.043.039-.088.077-.133.115q-.174.144.176-.131a6.281,6.281,0,0,0-.532.366,8.644,8.644,0,0,1-.991.551,2.011,2.011,0,0,1-.3.135c.135-.035.418-.173.114-.052-.195.078-.393.152-.591.224-.762.278-1.538.52-2.3.813a2.166,2.166,0,0,0-1.2.919,2,2,0,0,0,2.259,2.938,25.544,25.544,0,0,0,5.216-2.2A6.418,6.418,0,0,0,297,147.006a11.463,11.463,0,0,0,.867-3.041,2.171,2.171,0,0,0-.2-1.541,2,2,0,0,0-3.655.477Z"/><path class="c" d="M310.064,151.516a4.157,4.157,0,0,0,1.461,1.426,9.289,9.289,0,0,0,1.056.608,15.427,15.427,0,0,0,3.187,1.107,2.09,2.09,0,0,0,1.541-.2,2,2,0,0,0-.478-3.656,15.369,15.369,0,0,1-2.225-.682l.478.2a8.536,8.536,0,0,1-1.786-1.008l.4.313a2.342,2.342,0,0,1-.414-.394l.313.4a.924.924,0,0,1-.084-.138,2,2,0,0,0-3.656.478,2.216,2.216,0,0,0,.2,1.541Z"/><path class="c" d="M355.5,134.993a44.893,44.893,0,0,0-.947,5.666,12.771,12.771,0,0,0,.214,5.319,4.529,4.529,0,0,0,4.707,3.152,4.685,4.685,0,0,0,2.752-1.064,4.887,4.887,0,0,0,1.505-2.708,2,2,0,0,0-3.857-1.063c-.037.185-.1.357-.138.539.083-.353-.029.03-.085.138-.167.329.134-.129,0,.025-.047.053-.1.1-.148.152q.328-.233.149-.111c-.356.207.057-.051.112-.016-.01-.007-.364.105-.382.11-.377.116.39.016-.056.01-.129,0-.257.009-.386,0-.408-.017-.069.072,0,.008-.081.071-.484-.185-.055.01-.373-.17.279.237-.091-.068-.291-.241.1.265-.088-.09-.027-.049-.244-.439-.119-.184s-.045-.155-.062-.215c-.05-.184-.075-.468-.044-.118-.015-.169-.028-.336-.037-.5a23.478,23.478,0,0,1,.2-4.1,1.058,1.058,0,0,1,.033-.238q.042-.285.087-.572c.051-.312.1-.624.161-.935q.193-1.049.436-2.086a2,2,0,1,0-3.857-1.064Z"/><path class="c" d="M348.056,134.253a29.269,29.269,0,0,0-1.086,6.411c-.131,2.111-.35,4.517.614,6.461a5.053,5.053,0,0,0,4.793,2.982,5.371,5.371,0,0,0,4.8-3.612,2.014,2.014,0,0,0-1.4-2.461,2.051,2.051,0,0,0-2.46,1.4c.115-.329-.025.026-.074.106q-.113.171.025-.022l-.134.142s-.386.327-.244.226c.163-.117-.248.137-.283.161-.32.212.056-.094-.057.029s-.333.039,0,.025c-.142.006-.282.008-.423.007-.2,0-.351-.059-.073.005a2.8,2.8,0,0,0-.414-.106c-.236-.011.332.17-.038-.02-.313-.161.121.2,0-.017-.019-.034-.292-.365-.127-.137a4.728,4.728,0,0,1-.279-.444c-.024-.042-.214-.435-.113-.187a3.175,3.175,0,0,1-.144-.485c-.071-.317,0,.516,0-.193a30.794,30.794,0,0,1,.983-9.2,2,2,0,1,0-3.857-1.063Z"/><path class="c" d="M315.935,154.268a52.494,52.494,0,0,1,10.892,4.075,14.533,14.533,0,0,1,4.184,2.756c.924,1.01,1.783,2.082,2.615,3.168,3.985,5.2,7.4,11.1,12.1,15.709,1.84,1.8,4.671-1.023,2.828-2.828a57,57,0,0,1-5.929-7.311c-2.137-2.933-4.22-5.907-6.456-8.766a29.823,29.823,0,0,0-2.848-3.347,20.239,20.239,0,0,0-4.837-3.017,57.8,57.8,0,0,0-11.489-4.3c-2.494-.643-3.558,3.214-1.063,3.857Z"/><path class="c" d="M315.052,150.926q-3.564,4.3-7.331,8.429-1.965,2.156-3.992,4.253-1.014,1.047-2.048,2.072-.429.424-.86.843l-.425.409c-.118.113-.6.359-.336.349-.133,0-.082-.019.013.057a2.087,2.087,0,0,1-.353-.606c-.292-.538-.577-1.08-.86-1.622-.658-1.263-1.3-2.534-1.936-3.808-1.3-2.614-2.582-5.241-3.862-7.866-.843-1.728-1.606-3.548-2.6-5.2-1.326-2.2-4.786-.194-3.454,2.019.945,1.569,1.674,3.3,2.475,4.942,1.416,2.9,2.827,5.809,4.275,8.7.664,1.325,1.335,2.647,2.028,3.957.765,1.447,1.524,2.88,3.252,3.309,2.172.539,3.609-.826,5.04-2.229,1.553-1.522,3.066-3.087,4.554-4.674q4.785-5.107,9.249-10.5c1.631-1.968-1.184-4.813-2.829-2.828Z"/><path class="c" d="M269.325,192.687c-.052,2.071-.018,4.144-.017,6.216a2,2,0,1,0,4,0c0-2.072-.035-4.145.017-6.216a2.016,2.016,0,0,0-2-2,2.039,2.039,0,0,0-2,2Z"/><path class="c" d="M324.717,178.67c-.972,9.229-1.922,18.479-2.463,27.744-.15,2.571,3.85,2.563,4,0,.541-9.265,1.491-18.515,2.463-27.744a2.014,2.014,0,0,0-2-2,2.045,2.045,0,0,0-2,2Z"/><path class="b" d="M333.9,100.717a35.264,35.264,0,0,1-1.095,9.246,1.136,1.136,0,0,1,.226.028,3.629,3.629,0,0,1,2.507,1.877,5.125,5.125,0,0,1,.421,2.09A15.369,15.369,0,0,1,333.935,122a9.773,9.773,0,0,1-2.707,3.169,5.779,5.779,0,0,1-3.326.842l-.463,0a29.935,29.935,0,0,1-6.055,9.778,21.707,21.707,0,0,1-12.773,7.093,33.288,33.288,0,0,1-6.274.285,37.5,37.5,0,0,1-5.716-.938,21.973,21.973,0,0,1-12.39-8.517,29.942,29.942,0,0,1-4.941-10.444,3.978,3.978,0,0,1-3.779-1.209,9.777,9.777,0,0,1-2.337-3.45,15.366,15.366,0,0,1-1.11-8.221,5.126,5.126,0,0,1,.652-2.03,3.624,3.624,0,0,1,2.7-1.586,3.715,3.715,0,0,1,.395-.015l-.1-.845a39.727,39.727,0,0,1-.018-8.447c1.139-11.665,12.482-24.112,32.344-22.606C329.513,76.488,333.955,96.514,333.9,100.717Z"/><path class="e" d="M273.2,92.388a28.182,28.182,0,0,1,9.772-16.224A35.218,35.218,0,0,1,306.056,68.6c6.03.337,9.01.746,13.466,3.48l3.9,2.393,1.519.949a16.318,16.318,0,0,1,3.944,3.455c4.677,5.045,7.633,13.818,7.751,21.533a35.562,35.562,0,0,1-1.7,10.627,3.727,3.727,0,0,0-1.9-1.041,3.843,3.843,0,0,0-3.119.727s-.324.287-.8.722c-.3-1.12-.724-2.754-1.043-3.532a9.784,9.784,0,0,0-1.081-2.007,5.326,5.326,0,0,0-.66-.8c-.413-.384-1.288-1.189-1.736-1.539a20.3,20.3,0,0,1-5.209-5.927c-1.478-2.462-2.8-5.465-2.42-8.406a22.308,22.308,0,0,1-17.889,11.111c-1.915.17-3.621-1.611-5.408-1.778-5.037,2.963-11.859,7.417-13.579,10.942l-1.647-1.663a3.839,3.839,0,0,0-3.019-1.07,3.782,3.782,0,0,0-2.119.905A40.986,40.986,0,0,1,273.2,92.388Z"/><path class="e" d="M266.494,123.169a9.032,9.032,0,0,1,.882-3.819,5.211,5.211,0,0,1,4.268-2.987l.9-.052a15.61,15.61,0,0,0,.784,2.3,9.759,9.759,0,0,0,2.337,3.451,5.769,5.769,0,0,0,3.211,1.208l.461.049a30.247,30.247,0,0,0,3.762,8.7c-1.031,2.362-2.054,4.508-2.054,4.508a15.241,15.241,0,0,1-4.965,5.371c-1.893,1.244-4.246,2.065-6.426,1.448a1.584,1.584,0,0,1-1.1-.688c-.263-.581.719-1.566,1.3-2.548.691-1.165.424-3.127.051-4.43a28.735,28.735,0,0,0-1.605-3.729,21.008,21.008,0,0,1-1.791-7.272C266.489,124.183,266.478,123.675,266.494,123.169Z"/><path class="c" d="M272.041,114.281a7.99,7.99,0,0,0-7,5.5c-1.371,4.046-.277,8.977,1.361,12.776.754,1.748,1.819,3.436,1.88,5.392.055,1.757-1.768,2.724-1.768,4.5,0,2.386,2.89,3.139,4.8,3.105a11.147,11.147,0,0,0,5.871-1.992c3.208-2.147,6.338-5.271,7.6-8.983.832-2.443-3.031-3.491-3.857-1.064-.786,2.311-2.8,4.205-4.621,5.732-1.51,1.262-4.592,3.326-6.55,1.943l.717.718-.03.009v1.063c.141-.953,1.22-1.814,1.544-2.775a7.862,7.862,0,0,0,.142-3.71c-.429-2.769-2.109-5.111-2.886-7.777-.924-3.171-1.92-10,2.793-10.444a2.054,2.054,0,0,0,2-2,2.014,2.014,0,0,0-2-2Z"/><path class="c" d="M330.916,112.445c.993-.741,2.3-.678,2.785.236a4.328,4.328,0,0,1,.255,2.113,12.528,12.528,0,0,1-.35,2.643,12.824,12.824,0,0,1-2.171,4.76,3.954,3.954,0,0,1-3.533,1.818c-2.573.02-2.579,4.02,0,4a8.37,8.37,0,0,0,3.934-.869,9.269,9.269,0,0,0,2.817-2.616,16.369,16.369,0,0,0,3.032-7.124c.43-2.591.651-5.733-1.321-7.774a5.816,5.816,0,0,0-7.466-.641,2.062,2.062,0,0,0-.718,2.736,2.014,2.014,0,0,0,2.736.718Z"/><path class="c" d="M279.849,106.426a5.863,5.863,0,0,0-7.717-.361c-2.2,1.784-2.387,5.127-2.162,7.749.43,5,3.429,12.361,9.6,11.441a2.014,2.014,0,0,0,1.4-2.46,2.052,2.052,0,0,0-2.461-1.4,1.966,1.966,0,0,1-1.285-.5,6.652,6.652,0,0,1-1.422-1.578,12.6,12.6,0,0,1-1.781-5.029,13.939,13.939,0,0,1-.076-2.717,4.935,4.935,0,0,1,.431-2.091,1.744,1.744,0,0,1,2.647-.229c1.878,1.758,4.712-1.065,2.828-2.829Z"/><path class="c" d="M331.22,111.586a27.315,27.315,0,0,0-1.913-5.722c-1.027-1.922-2.659-3.111-4.264-4.5-3.3-2.865-6.552-7.572-6.085-12.131.212-2.079-2.766-2.575-3.727-1.01-3.56,5.8-8.993,10.08-15.94,10.676-2.545.219-2.569,4.221,0,4a23.138,23.138,0,0,0,11.8-4.231,29.305,29.305,0,0,0,7.593-8.426l-3.727-1.009c-.506,4.942,2.541,10.134,5.835,13.6,1.356,1.429,3.174,2.472,4.409,4,1.3,1.614,1.625,3.869,2.16,5.811.684,2.479,4.544,1.426,3.858-1.063Z"/><path class="c" d="M298.954,91.923a5.289,5.289,0,0,1-.66.826,14.615,14.615,0,0,1-1.068,1.044,22.17,22.17,0,0,1-2.416,1.854c-2.009,1.377-4.117,2.6-6.193,3.876-3.771,2.311-8.3,4.934-10.312,9.067a2.051,2.051,0,0,0,.717,2.736,2.02,2.02,0,0,0,2.737-.717,12.264,12.264,0,0,1,3.724-4.2,62.072,62.072,0,0,1,6.081-4c3.844-2.336,8.262-4.65,10.844-8.468,1.446-2.138-2.018-4.142-3.454-2.019Z"/><path class="c" d="M320.531,70.348a23.021,23.021,0,0,0-6.93-2.911,45.441,45.441,0,0,0-7.994-.864,36.879,36.879,0,0,0-17.222,3.816,31.146,31.146,0,0,0-16.366,18.549c-1.858,5.934-1.742,12.23-.809,18.316a2.015,2.015,0,0,0,2.46,1.4,2.051,2.051,0,0,0,1.4-2.461c-1.311-8.55-.349-17.68,5.315-24.561a31.517,31.517,0,0,1,23-11.062c5.294-.181,10.55.461,15.13,3.235,2.208,1.337,4.221-2.121,2.019-3.454Z"/><path class="c" d="M337.161,110.724a36.152,36.152,0,0,0-.142-20.7c-1.857-6.3-5.369-12.749-11.07-16.335-2.185-1.375-4.195,2.085-2.019,3.454,4.8,3.02,7.805,8.895,9.344,14.333a32.121,32.121,0,0,1,.03,18.184c-.761,2.466,3.1,3.52,3.857,1.063Z"/><path class="c" d="M276.808,121.164c1.622,9.6,7.676,18.817,17.03,22.3a30.616,30.616,0,0,0,15.679,1.282,23.849,23.849,0,0,0,12.517-6.758,32.372,32.372,0,0,0,8.2-14.055c.71-2.479-3.148-3.538-3.857-1.063-2.257,7.882-8.043,15.519-16.265,17.657a26.515,26.515,0,0,1-13.655-.412,20.233,20.233,0,0,1-10.034-6.83,28.2,28.2,0,0,1-5.754-13.186,2.016,2.016,0,0,0-2.46-1.4,2.048,2.048,0,0,0-1.4,2.461Z"/><path class="c" d="M303.047,118.578c.123.6.231,1.212.313,1.823l-.071-.532c.038.289.072.578.111.867l-.071-.531a1.736,1.736,0,0,1,.009.388l.071-.531a.7.7,0,0,1-.048.174l.2-.477a.66.66,0,0,1-.054.087l.313-.405a.445.445,0,0,1-.049.048l.4-.313a.937.937,0,0,1-.16.084l.478-.2a1.413,1.413,0,0,1-.305.086l.531-.072a1.109,1.109,0,0,1-.282,0l.531.072c-.123-.02-.241-.058-.363-.081a2.246,2.246,0,0,0-1.542.2,2,2,0,0,0-.717,2.737,1.971,1.971,0,0,0,1.195.919c.316.06.593.124.928.156a2.732,2.732,0,0,0,1.326-.26,2.313,2.313,0,0,0,.852-.545,2.417,2.417,0,0,0,.6-1.053,3.585,3.585,0,0,0,0-1.58l.072.532a26.421,26.421,0,0,0-.42-2.653,1.928,1.928,0,0,0-1.663-1.433,1.522,1.522,0,0,0-.8.036,2.025,2.025,0,0,0-1.195.919l-.2.478a2.018,2.018,0,0,0,0,1.063Z"/><path class="c" d="M290.965,110.5c-.494,1.335-.4,4.475,2.162,4.885,3.4.17,3.794-3.6,2.749-5.438C295.02,108.435,292.3,107.676,290.965,110.5Z"/><path class="c" d="M318.2,112.018c.342,1.382-.105,4.491-2.693,4.613-3.4-.211-3.37-4-2.126-5.711C314.4,109.518,317.191,109.068,318.2,112.018Z"/><path class="c" d="M309.259,131.27a10.112,10.112,0,0,0,1.627-2.954,2.015,2.015,0,0,0-1.928-2.532c-3.275.2-6.554.332-9.835.277a2.012,2.012,0,0,0-1.929,2.532c1.02,2.492,2.4,4.987,4.766,6.435a3.831,3.831,0,0,0,4.617-.475,11.242,11.242,0,0,0,1.161-1.323q.785-.961,1.521-1.96a2.006,2.006,0,0,0-.717-2.736,2.057,2.057,0,0,0-2.736.717c-.091.124-.182.246-.274.368-.042.056-.3.384-.077.1-.164.206-.326.412-.492.616-.305.375-.608.758-.937,1.113a1.761,1.761,0,0,0-.232.233c-.1.179.361-.2.079-.058-.307.16.361-.106.123-.035-.255.077-.156-.061.116.011a1.017,1.017,0,0,0-.277.008c.283.051.349.056.2.014-.1-.034-.09-.026.039.022.278.132-.1-.076-.156-.109s-.4-.289-.173-.115c.2.156-.056-.05-.093-.08-.09-.074-.181-.147-.269-.224a6.387,6.387,0,0,1-.5-.5c-.066-.073-.129-.149-.193-.223-.319-.363.149.222-.015-.011-.148-.212-.3-.42-.439-.638-.266-.414-.508-.843-.732-1.28-.113-.22-.22-.442-.323-.666-.04-.085-.077-.171-.116-.257-.2-.438.167.41-.007-.014l-1.928,2.532c3.281.055,6.56-.073,9.835-.277l-1.929-2.531a1.371,1.371,0,0,0-.073.223c-.028-.034.195-.4.042-.108-.109.207-.217.413-.338.614-.263.438-.555.856-.854,1.269a2.008,2.008,0,0,0,.717,2.737A2.055,2.055,0,0,0,309.259,131.27Z"/><path class="b" d="M194.483,145.343c.52,1.21,1.7,4.56,2.22,5.77a2.867,2.867,0,0,0,.41.75,2.392,2.392,0,0,0,1.41.69,9.181,9.181,0,0,0,1.987.05c-1.073,3.07-7.193,12.763-10.809,17.752a1.993,1.993,0,0,1-2.951.313,111.68,111.68,0,0,1-13.275-13.946,24.883,24.883,0,0,0,3.3-2.519,6.058,6.058,0,0,0,1.23-1.7,7.062,7.062,0,0,0,.23-3.63l-.826-4.237,15.852-3.259Z"/><path class="b" d="M75.772,145.35A27.747,27.747,0,0,1,72.23,143.8a59.038,59.038,0,0,0-5.747-2.643c-1.89-.745-3.52-1.866-3.446-3.856a2.516,2.516,0,0,1,2.556-2.741,19.073,19.073,0,0,1,3.041.3,57.324,57.324,0,0,1-5.971-4.044,5.733,5.733,0,0,1-1.722-2.167,3.27,3.27,0,0,1,.967-3.794,2.864,2.864,0,0,1,3.285-.27c-.729-.625-3.263-2.351-1.526-4.986,1.173-1.78,4.182-.881,5.095-.235-.7-.88-.305-2.236-.051-2.914a3.184,3.184,0,0,1,3.083-1.9,6.791,6.791,0,0,1,2.874.887c3.016,2.042,4.717,3.267,8.256,5.657l.681.4c-.012-.04-.021-.08-.029-.118a5.136,5.136,0,0,1-.037-3.025,3.164,3.164,0,0,1,2.831-1.641,5.755,5.755,0,0,1,3.037,1.7c4.072,4.3,6.761,10.558,8.588,16.834.83.565,2.7,1.876,4.259,2.8a37.052,37.052,0,0,0-6.791,13.191c-.065.233-.128.473-.172.715-2.18-1.123-4.886-2.873-6.618-3.56A52.534,52.534,0,0,1,75.772,145.35Z"/><path class="b" d="M222.259,175.451c1.229,8.275,2.048,12.043,3.817,21L172.37,213.9c-2.637-7.761-5.4-16.026-8.319-24.089l-1.014-.355c-6.673-2.336-15.922-5.635-22.054-9.154L97.038,155.08a3.664,3.664,0,0,1-1.641-1.455,3.5,3.5,0,0,1,.066-2.389A37.339,37.339,0,0,1,103.1,137a1.594,1.594,0,0,1,1.812-.41c6.737,2.787,12.624,4.993,19.215,8.142,10.1,4.827,19.858,10.653,30.694,13.487a23.507,23.507,0,0,0,7.1.547,42.369,42.369,0,0,0,4.332-.578c2.222-.445,5.023-1.265,7.117-1.609a116.034,116.034,0,0,0,15,15.535,145.329,145.329,0,0,0,11.417-17.875l3.817-2.279c3.254.03,6.539-.588,9.825-.479a44.6,44.6,0,0,1,8.961,1.531l14.226,3.439Z"/><path class="c" d="M163.569,187.522c-4.426-1.549-8.845-3.127-13.178-4.923a114.7,114.7,0,0,1-13.138-6.748L107.31,158.669l-7.539-4.327c-.54-.31-2.387-.994-2.574-1.628-.109-.366.213-1.016.313-1.358.2-.686.421-1.365.661-2.037a36.618,36.618,0,0,1,5.254-9.577c.274-.356.683-1.145,1.088-1.324-.165.073-.367.044-.134.1a11.515,11.515,0,0,1,1.336.55c4.946,2.027,9.93,3.964,14.8,6.177,4.78,2.173,9.425,4.625,14.123,6.967a117.722,117.722,0,0,0,16.192,6.921,31.377,31.377,0,0,0,7.6,1.6,47.624,47.624,0,0,0,7.828-.543,2.056,2.056,0,0,0,2-2,2.014,2.014,0,0,0-2-2,49.692,49.692,0,0,1-7.446.566,26.534,26.534,0,0,1-6.7-1.408,108.664,108.664,0,0,1-15.248-6.487c-5.047-2.511-10.033-5.147-15.18-7.453-5.2-2.327-10.493-4.465-15.787-6.56-3.007-1.189-4.648,1.145-6.254,3.321a37.433,37.433,0,0,0-4,6.827c-1.034,2.29-2.4,5.094-2.422,7.651-.027,3.115,3.108,4.328,5.4,5.641l31.881,18.3c5.281,3.031,10.476,6.243,16.061,8.692,5.216,2.288,10.576,4.221,15.949,6.1,2.435.853,3.481-3.01,1.064-3.857Z"/><path class="c" d="M156.7,176.257c5.172,12.5,9.4,25.367,13.747,38.17.823,2.424,4.688,1.384,3.857-1.063-4.35-12.8-8.575-25.669-13.747-38.17a2.064,2.064,0,0,0-2.46-1.4,2.013,2.013,0,0,0-1.4,2.46Z"/><path class="c" d="M220.331,175.983c1.049,7.044,2.437,14.016,3.817,21a2.02,2.02,0,0,0,2.46,1.4,2.041,2.041,0,0,0,1.4-2.46c-1.38-6.986-2.768-13.958-3.817-21a2.015,2.015,0,0,0-2.461-1.4,2.051,2.051,0,0,0-1.4,2.461Z"/><path class="c" d="M199.325,154.466c6.122-.514,12.464-1.634,18.555-.425,6.108,1.212,12.151,2.879,18.2,4.343,2.5.6,3.568-3.252,1.063-3.857-6.2-1.5-12.4-3.256-18.675-4.434-6.344-1.192-12.779-.162-19.147.373-2.546.214-2.569,4.216,0,4Z"/><path class="c" d="M171.993,158.05a103.7,103.7,0,0,0,7.761,8.734q2,2.016,4.1,3.943c1.305,1.207,2.528,2.52,4.442,2.437,1.762-.076,2.758-1.261,3.7-2.586q1.234-1.743,2.412-3.528c1.656-2.493,3.261-5.023,4.784-7.6a31.4,31.4,0,0,0,3.334-6.58c.747-2.469-3.112-3.524-3.857-1.063a12.58,12.58,0,0,1-1.06,2.31c-.694,1.315-1.442,2.6-2.205,3.876q-2.606,4.357-5.469,8.555-.648.952-1.311,1.894a3.008,3.008,0,0,1-.512.711c-.245.155.113.048-.019.029-.259-.038-.731-.662-.918-.833q-.652-.6-1.3-1.2-1.116-1.047-2.211-2.118a105.544,105.544,0,0,1-8.838-9.8,2.012,2.012,0,0,0-2.829,0,2.049,2.049,0,0,0,0,2.828Z"/><path class="c" d="M86.764,124.516c-.392-.922-2.634-5.626-.635-5.812.911-.084,2.076,1.328,2.652,2a25.963,25.963,0,0,1,2.59,3.7A45.428,45.428,0,0,1,95.3,133.3c.233.7.433,1.422.666,2.126a3.427,3.427,0,0,0,1.562,1.92c1.245.855,2.5,1.7,3.8,2.472,2.22,1.315,4.235-2.141,2.019-3.454-1.487-.882-2.908-1.866-4.335-2.841l.919,1.2a59.887,59.887,0,0,0-3.895-10.124,26.555,26.555,0,0,0-5.6-7.969,6.756,6.756,0,0,0-4.3-1.919,5.2,5.2,0,0,0-4.072,2.215c-1.877,2.8.094,6.887,1.253,9.615a2.011,2.011,0,0,0,2.736.718,2.052,2.052,0,0,0,.718-2.736Z"/><path class="c" d="M83.934,119.366q-2.544-1.719-5.067-3.472c-1.639-1.133-3.247-2.494-5.2-3.03a5.6,5.6,0,0,0-6.083,1.627,5.283,5.283,0,0,0-.551,5.882l2.737-2.736c-2.356-1.545-6.172-1.612-7.832.953a4.936,4.936,0,0,0-.33,4.952A8,8,0,0,0,63.778,126l2.424-3.141a5.147,5.147,0,0,0-6.265,1.1,5.4,5.4,0,0,0-.477,6.166c1.066,1.856,2.965,3.04,4.683,4.237a57.864,57.864,0,0,0,5.905,3.571c2.272,1.208,4.3-2.243,2.019-3.454a59.879,59.879,0,0,1-7.581-4.78c-.778-.577-1.877-1.4-1.784-2.432a1.056,1.056,0,0,1,1.481-.955,2.026,2.026,0,0,0,2.58-.515,1.985,1.985,0,0,0-.156-2.626c-.852-.715-1.814-1.275-1.4-2.251.35-.828,2.035-.166,2.548.171a2.014,2.014,0,0,0,2.736-2.737q-.254-.466-.114-.083a1.506,1.506,0,0,0-.006-.315,3.841,3.841,0,0,1,.2-.774,1.267,1.267,0,0,1,.736-.595c1.175-.334,2.473.654,3.362,1.26,2.42,1.652,4.822,3.332,7.25,4.973,2.138,1.445,4.142-2.019,2.019-3.454Z"/><path class="c" d="M68.807,132.883c-2.935-.451-6.385-.657-7.509,2.8a5.282,5.282,0,0,0,.843,4.88,9.455,9.455,0,0,0,4.165,2.664c2.736,1.114,5.284,2.615,8.029,3.7a55.076,55.076,0,0,0,9.5,2.773q1.326.264,2.665.447c.456.062.912.121,1.369.169.569.06.277,0,.8.255,1.832.909,3.562,2.012,5.365,2.974,2.271,1.211,4.294-2.241,2.019-3.454-1.753-.935-3.436-2-5.211-2.9a6.9,6.9,0,0,0-2.487-.832c-.735-.075-1.461-.16-2.191-.284a54.59,54.59,0,0,1-10.317-2.832,35.846,35.846,0,0,1-3.411-1.6c-1.771-.9-3.607-1.623-5.422-2.423-.852-.376-2.611-1.231-1.86-2.483.133-.222.234-.166.438-.186a8.828,8.828,0,0,1,2.15.178,2.064,2.064,0,0,0,2.461-1.4,2.015,2.015,0,0,0-1.4-2.46Z"/><path class="c" d="M67.753,121.091c3.281,2.144,6.377,4.562,9.654,6.713a2.014,2.014,0,0,0,2.736-.717,2.047,2.047,0,0,0-.718-2.737c-3.276-2.151-6.373-4.569-9.653-6.713a2.016,2.016,0,0,0-2.737.717,2.047,2.047,0,0,0,.718,2.737Z"/><path class="c" d="M64.183,126.312c3.283,2.141,6.5,4.373,9.783,6.521a2.014,2.014,0,0,0,2.736-.717,2.045,2.045,0,0,0-.717-2.737c-3.278-2.148-6.5-4.38-9.783-6.521a2.015,2.015,0,0,0-2.736.717,2.046,2.046,0,0,0,.717,2.737Z"/><path class="c" d="M176.233,148.873c.046.411.091.822.111,1.235.009.183.013.366.011.549,0,.114-.006.228-.013.341,0,.068-.052.373,0,.071.06-.331-.013.063-.028.133-.019.088-.04.175-.064.261s-.053.171-.08.257c-.127.407.145-.244.018-.047-.1.165-.2.342-.3.51-.148.242.064-.021.077-.087-.016.08-.159.194-.21.254a9.342,9.342,0,0,1-.741.774c-.141.129-.287.252-.435.372-.045.037-.287.226-.056.048.251-.194-.064.046-.118.085-.638.47-1.3.905-1.944,1.367a2.163,2.163,0,0,0-.919,1.195,2.045,2.045,0,0,0,.2,1.542,2.022,2.022,0,0,0,2.736.717,20.5,20.5,0,0,0,4.272-3.475A6.352,6.352,0,0,0,180.221,152a11.3,11.3,0,0,0,.012-3.128,2.181,2.181,0,0,0-.586-1.414,2.033,2.033,0,0,0-1.414-.586c-.983.044-2.127.887-2,2Z"/><path class="c" d="M192.756,146.353c-.341-.8-.062-.142.015.051.067.17.134.341.2.513.154.4.3.8.454,1.2.32.856.635,1.713.963,2.565.118.306.239.611.366.914q.368.873.069.165.12.3.251.591a3.079,3.079,0,0,0,.2.374,3.866,3.866,0,0,0,1.142,1.147,6.836,6.836,0,0,0,4.093.731,2,2,0,0,0,0-4c-.308.013-.616.027-.923.028-.123,0-.246,0-.369-.006-.08,0-.159-.007-.238-.013q-.327-.033.184.032c-.213-.076-.462-.106-.682-.17-.146-.052-.07-.019.23.1a1.993,1.993,0,0,1-.188-.1c-.129-.086-.119-.075.03.035s.158.123.042.018c.377.432.09.122.01-.031-.029-.054-.057-.109-.082-.165q.257.614-.1-.228c.325.774.1.231.025.048-.136-.339-.266-.679-.4-1.02-.608-1.6-1.176-3.221-1.85-4.8a1.993,1.993,0,0,0-1.195-.919,2,2,0,0,0-2.46,1.4,2.344,2.344,0,0,0,.2,1.542Z"/><path class="c" d="M83.31,124.516a10.353,10.353,0,0,0-.9,3.867,15.257,15.257,0,0,0,.349,3.6,2.014,2.014,0,0,0,2.461,1.4,2.049,2.049,0,0,0,1.4-2.46c-.067-.334-.124-.668-.171-1l.072.531a11.409,11.409,0,0,1-.039-2.878l-.071.532a7.627,7.627,0,0,1,.481-1.856l-.2.478c.025-.062.052-.123.08-.185a2.182,2.182,0,0,0,.2-1.541,2,2,0,0,0-2.461-1.4,1.944,1.944,0,0,0-1.195.92Z"/><path class="b" d="M205.75,105.16A4.3,4.3,0,0,1,209,103.653a4.061,4.061,0,0,1,3.176,1.486,5.744,5.744,0,0,1,.938,2.194,17.221,17.221,0,0,1-.379,9.281,10.938,10.938,0,0,1-2.245,4.09,3.372,3.372,0,0,1-3.929,1.076,33.883,33.883,0,0,1-4.534,12.8,24.506,24.506,0,0,1-12.486,10.774,37.48,37.48,0,0,1-6.868,1.756,42.218,42.218,0,0,1-6.532.278,24.8,24.8,0,0,1-15.65-6.565,33.815,33.815,0,0,1-7.886-10.459c-1.729,1.141-3.244.4-4.439-.288a10.937,10.937,0,0,1-3.348-3.25,17.206,17.206,0,0,1-3.091-8.759,5.725,5.725,0,0,1,.251-2.373,4.062,4.062,0,0,1,2.6-2.354,4.306,4.306,0,0,1,3.553.484S142.407,88.693,170.3,83.294C203.991,76.773,205.75,105.16,205.75,105.16Z"/><path class="f" d="M153.2,100.315c-.423.691-.848,1.372-1.276,2.026-.2.548-.312.876-.312.876-.81,2.274-.881,6.312-2.832,11.154a4.112,4.112,0,0,0-4.02-1.072c-2.97-4.485-4.387-13.343-3.885-18.853.492-5.4,2.623-10.645,5.376-12.819l3.622-5.361c4.347-6.52,11.171-9.98,18.257-11.157,7.683-1.275,15.214-.579,21.656,4.872l6.019,2.953c4.492,1.449,8.9,6.308,10.869,9.773,2.846,5.01,4.761,13.823,3.744,21.193a4.2,4.2,0,0,0-4.984,1.736,36.455,36.455,0,0,0-6.139-13.579c-1.045-1.344-3.828-1.463-5.3-2.315,0,0-4.818-4.275-13.4-4.058-3.2.081-9.31,2.391-9.31,2.391-4.478.046-7.733-.155-11.256,2.611C157.728,92.489,155.5,96.557,153.2,100.315Z"/><path class="c" d="M207.165,106.574a2.263,2.263,0,0,1,3.428-.227,5.283,5.283,0,0,1,.77,2.336,15.392,15.392,0,0,1-.969,8.514,7.649,7.649,0,0,1-1.494,2.28,1.439,1.439,0,0,1-1.561.483,2.013,2.013,0,0,0-2,2,2.047,2.047,0,0,0,2,2c3.018.338,5.242-2.1,6.443-4.6a18.72,18.72,0,0,0,1.788-8.714c-.109-2.857-.624-6.247-3.166-7.973a6.3,6.3,0,0,0-8.068,1.076c-1.7,1.921,1.117,4.76,2.829,2.828Z"/><path class="c" d="M149.143,112.094a6.3,6.3,0,0,0-8.09,1.305c-1.979,2.431-1.43,5.994-.625,8.8a18.711,18.711,0,0,0,4.18,7.54c1.934,2.076,5.056,3.989,7.954,2.878a2.056,2.056,0,0,0,1.4-2.46,2.015,2.015,0,0,0-2.46-1.4c-1.527.586-3.071-.783-4.062-1.849a14.028,14.028,0,0,1-2.887-4.937,15.834,15.834,0,0,1-.734-2.981,5.464,5.464,0,0,1,.048-2.621,2.249,2.249,0,0,1,3.261-.819c2.2,1.349,4.213-2.109,2.019-3.454Z"/><path class="c" d="M170.621,81.168a13.283,13.283,0,0,1,1.386.369c.238.079.472.167.707.255.349.132-.265-.122-.037-.018.1.047.209.092.312.14a13.59,13.59,0,0,1,1.265.677c.407.247.776.573,1.186.808-.184-.106-.243-.192-.029-.016.088.072.176.145.262.22q.26.222.507.459a13.3,13.3,0,0,1,.984,1.044c.073.087.145.175.217.263.3.364-.252-.357.02.029.132.186.266.37.391.56a13.553,13.553,0,0,1,.75,1.3,2.012,2.012,0,0,0,2.736.718A2.05,2.05,0,0,0,182,85.241a15.332,15.332,0,0,0-10.312-7.93,2,2,0,0,0-1.063,3.857Z"/><path class="c" d="M183.038,82.512a8.422,8.422,0,0,1,.853.574l-.405-.312a8.413,8.413,0,0,1,1.45,1.453l-.313-.405a8.517,8.517,0,0,1,1.08,1.846l-.2-.478a8.192,8.192,0,0,1,.52,1.809,2.007,2.007,0,0,0,.919,1.2,2,2,0,0,0,2.737-.717,2.288,2.288,0,0,0,.2-1.542,10.116,10.116,0,0,0-4.822-6.877,2,2,0,1,0-2.019,3.454Z"/><path class="c" d="M193.977,90.269a12.932,12.932,0,0,1,4.065,3.439,30.711,30.711,0,0,1,2.594,4.559,35.655,35.655,0,0,1,3.023,8.753,2.018,2.018,0,0,0,2.46,1.4,2.045,2.045,0,0,0,1.4-2.461,39.871,39.871,0,0,0-3.542-9.95,28.746,28.746,0,0,0-2.817-4.781A17.239,17.239,0,0,0,196,86.816c-2.223-1.31-4.238,2.147-2.018,3.453Z"/><path class="c" d="M144.836,80.213c-2.257,1.861-3.616,4.693-4.552,7.4a28.458,28.458,0,0,0-1.507,9.536c.062,5.647,1.1,11.989,4.078,16.88,1.336,2.2,4.8.188,3.454-2.019-2.563-4.212-3.423-9.659-3.526-14.519-.1-4.824.933-11.2,4.881-14.453,1.988-1.639-.856-4.455-2.828-2.829Z"/><path class="c" d="M195.272,74.862c4.812,1.643,8.841,6.492,10.765,11.067a35.548,35.548,0,0,1,2.43,17.589,2.012,2.012,0,0,0,2,2,2.047,2.047,0,0,0,2-2,38.775,38.775,0,0,0-3.047-19.773c-2.426-5.49-7.326-10.773-13.084-12.74-2.442-.834-3.49,3.029-1.064,3.857Z"/><path class="c" d="M149.49,128.161c3.938,10.106,12.472,19.261,23.6,20.924a34.233,34.233,0,0,0,17.895-2.173,26.816,26.816,0,0,0,11.754-9.757,36.109,36.109,0,0,0,6.087-17.855c.189-2.568-3.812-2.556-4,0-.682,9.267-5.432,19-13.992,23.311a30.316,30.316,0,0,1-15.273,2.746,22.846,22.846,0,0,1-13.312-5.653,32.056,32.056,0,0,1-8.9-12.606,2.059,2.059,0,0,0-2.46-1.4,2.014,2.014,0,0,0-1.4,2.46Z"/><path class="c" d="M151.6,77.276c3.857-5.683,10.033-8.99,16.7-10.175,7.061-1.256,14.411-.413,20.076,4.294,1.967,1.634,4.812-1.181,2.829-2.829a24.885,24.885,0,0,0-11.437-5.508,35.131,35.131,0,0,0-12.165.123,28.984,28.984,0,0,0-19.452,12.076c-1.449,2.135,2.015,4.139,3.454,2.019Z"/><path class="c" d="M171.406,85.585a20.623,20.623,0,0,0-9.688,3.114,31.436,31.436,0,0,0-7.182,6.191,27.024,27.024,0,0,0-5.222,9.635c-.931,3.229-1.528,6.654-2.174,9.95-.492,2.514,3.362,3.591,3.857,1.063.569-2.9,1.2-5.8,1.851-8.683A22.316,22.316,0,0,1,157.137,98c3.477-4.407,8.591-7.95,14.269-8.412,2.548-.207,2.571-4.209,0-4Z"/><path class="c" d="M177.691,118.323a30.117,30.117,0,0,0-.54,3.083l.071-.531a4.027,4.027,0,0,0-.012,1.665,2.4,2.4,0,0,0,1.273,1.59,3.311,3.311,0,0,0,1.655.392c.353-.029.686-.108,1.031-.167a2.007,2.007,0,0,0,1.195-.919,2,2,0,0,0-.717-2.737l-.478-.2a2.018,2.018,0,0,0-1.063,0c-.141.024-.278.065-.419.086l.532-.071a1.405,1.405,0,0,1-.349,0l.532.072a1.7,1.7,0,0,1-.377-.111l.477.2a1.072,1.072,0,0,1-.194-.106l.405.312a.354.354,0,0,1-.058-.058l.313.4a.6.6,0,0,1-.064-.106l.2.478a.869.869,0,0,1-.054-.212l.072.532a1.881,1.881,0,0,1,.013-.424l-.071.532c.036-.258.069-.516.1-.775l-.072.532c.111-.8.273-1.606.45-2.4a2.115,2.115,0,0,0-.2-1.541,2,2,0,0,0-2.736-.717,2.006,2.006,0,0,0-.919,1.195Z"/><path class="c" d="M163.129,114.35c-.234,1.552.577,4.92,3.431,4.788,3.712-.58,3.289-4.736,1.747-6.489C167.044,111.215,163.934,111.007,163.129,114.35Z"/><path class="c" d="M192.756,109.9c.68,1.415.9,4.873-1.872,5.586-3.718.536-4.536-3.561-3.578-5.689C188.091,108.051,191,106.938,192.756,109.9Z"/><path class="c" d="M187.781,136.536a16.776,16.776,0,0,0,1.7-7.833,2.02,2.02,0,0,0-2.531-1.928c-1.8.475-3.6.957-5.421,1.319-.841.167-1.687.3-2.536.425.188-.027.224-.029.014,0l-.356.044c-.279.034-.558.065-.837.095-.581.062-1.162.116-1.744.166a2,2,0,0,0,0,4,60.107,60.107,0,0,0,6.37-.84c1.877-.365,3.726-.86,5.573-1.349l-2.532-1.929c-.007.528-.028,1.056-.071,1.583-.024.307-.056.614-.094.92.026-.208.022-.147-.007.023-.025.154-.05.308-.078.462a13.741,13.741,0,0,1-.394,1.616c-.081.257-.171.509-.269.759.07-.177.076-.166-.007,0s-.152.3-.234.451a2,2,0,1,0,3.454,2.019Z"/><path class="b" d="M267.884,167.062a4.172,4.172,0,0,1,3.339-.977,3.944,3.944,0,0,1,2.834,1.884,5.594,5.594,0,0,1,.583,2.241,16.688,16.688,0,0,1-1.7,8.851,10.6,10.6,0,0,1-2.744,3.6,3.2,3.2,0,0,1-3.208.75s-.176-.054-.482-.145c-.295,1.163-.685,2.177-.86,2.673-1.055,2.672-7.29,12.587-15.456,14.841-4.721,2.082-11.992,2.352-16.9,1.16a26.931,26.931,0,0,1-13.977-8.217,30.025,30.025,0,0,1-5.949-10.111l-.712.192a3.989,3.989,0,0,1-3.616-1.143,10.6,10.6,0,0,1-2.744-3.6,16.7,16.7,0,0,1-1.7-8.851,5.579,5.579,0,0,1,.584-2.241,3.942,3.942,0,0,1,2.833-1.884,4.175,4.175,0,0,1,3.34.977s1-24.733,28.358-24.733S267.884,167.062,267.884,167.062Z"/><path class="f" d="M208.238,154.691a30.116,30.116,0,0,1,12.8-21.314,31.586,31.586,0,0,1,18.739-5.767,33.243,33.243,0,0,1,11.061,1.814,31.429,31.429,0,0,1,4.665,2.092,36.566,36.566,0,0,1,5.343,3.543c.639.556,1.578,1.469,2.2,2.094a29.212,29.212,0,0,1,4.06,5.136,30.65,30.65,0,0,1,4.412,14.843,41.14,41.14,0,0,1-.577,8.93,4.125,4.125,0,0,0-3.057,1l-.965.1A4.518,4.518,0,0,1,262.591,165l-.485-.805a31.776,31.776,0,0,0-6.09-14.974,2.614,2.614,0,0,0-3.228-.746,53.168,53.168,0,0,1-6.543,2.74c-1.47.5-3.415.878-4.489-.057-1.017-.887-.6-2.493-1.813-3.214a4.1,4.1,0,0,0-2.959-.067c-10.352,2.589-15.925,7.743-19.767,15.725l-.582.991a4.975,4.975,0,0,1-4.22,2.457l-1.07.015a4.089,4.089,0,0,0-2.536-1.008c.19,1.857-.941-4.924-.765-8.922Q208.1,155.88,208.238,154.691Z"/><path class="c" d="M269.3,168.476a2.1,2.1,0,0,1,3.032.5,5.3,5.3,0,0,1,.366,2.291,13.9,13.9,0,0,1-.2,2.786,14.753,14.753,0,0,1-1.977,5.229,7.273,7.273,0,0,1-1.537,1.805,1.347,1.347,0,0,1-1.468.4c-2.49-.664-3.552,3.194-1.064,3.858,3.1.825,5.521-1.158,7.209-3.565a17.936,17.936,0,0,0,2.905-8.089c.33-2.7.312-6.11-1.871-8.074a6.227,6.227,0,0,0-8.227.034,2.015,2.015,0,0,0,0,2.828,2.043,2.043,0,0,0,2.829,0Z"/><path class="c" d="M212.759,165.648a6.23,6.23,0,0,0-8.227-.034c-2.245,2.019-2.2,5.544-1.841,8.3a17.647,17.647,0,0,0,3.042,8.091c1.744,2.393,4.34,4.412,7.45,3.726a2,2,0,1,0-1.064-3.857c-1.264.279-2.627-1.4-3.259-2.354a14.559,14.559,0,0,1-2.1-5.318,13.772,13.772,0,0,1-.228-2.742,5.568,5.568,0,0,1,.37-2.485,2.093,2.093,0,0,1,3.031-.5,2.055,2.055,0,0,0,2.829,0,2.016,2.016,0,0,0,0-2.828Z"/><path class="c" d="M210.373,180.291c2.429,11.774,11.713,21.726,23.715,23.857a33.09,33.09,0,0,0,8.9.351,34.529,34.529,0,0,0,8.045-1.879,26.78,26.78,0,0,0,12.151-9.113c2.934-3.705,5.458-7.837,5.695-12.695.126-2.573-3.874-2.567-4,0a13.308,13.308,0,0,1-.828,3.654c-.054.159-.5,1.33-.225.685-.12.277-.255.547-.394.815a30.638,30.638,0,0,1-2.5,3.954c-2.483,3.392-5.739,6.709-9.664,8.382-9.386,4-20.861,2.977-28.586-4.028a27.92,27.92,0,0,1-8.448-15.046c-.52-2.519-4.377-1.453-3.857,1.063Z"/><path class="c" d="M272.906,166.38c1.392-8.557.579-17.6-4.073-25.1A33.59,33.59,0,0,0,248.9,126.742a35.969,35.969,0,0,0-25.027,2.569,33.533,33.533,0,0,0-13.741,13.13,32.338,32.338,0,0,0-3.881,12.141,42.551,42.551,0,0,0,.539,11.8,2.016,2.016,0,0,0,2.461,1.4,2.048,2.048,0,0,0,1.4-2.46c-1.008-6.232-.875-12.7,1.761-18.542a29.4,29.4,0,0,1,10.719-12.41c12.776-8.347,31.036-5.454,40.54,6.479,5.47,6.867,6.761,15.99,5.381,24.47a2.062,2.062,0,0,0,1.4,2.46,2.016,2.016,0,0,0,2.461-1.4Z"/><path class="c" d="M218.574,166.238c3.435-7.075,8.69-13.026,16.292-15.65a21.8,21.8,0,0,1,3.024-.873c.272-.051.778-.2,1.044-.047-.253-.15.114.563.182.768a4.563,4.563,0,0,0,4.922,3.275c2.494-.163,4.949-1.336,7.207-2.32q.861-.375,1.711-.78c.291-.14.743-.486,1.094-.411.67.144,1.191,1.358,1.515,1.882a39.134,39.134,0,0,1,4.909,14.419,2.014,2.014,0,0,0,2.46,1.4,2.049,2.049,0,0,0,1.4-2.46,43.665,43.665,0,0,0-4.72-14.366c-1.177-2.109-2.587-4.595-5.242-4.84a6.359,6.359,0,0,0-3.432.925q-2.117,1.011-4.322,1.808c-.86.312-2.355,1.049-3.31.755-.215-.066-.239-.07-.241-.073a8.55,8.55,0,0,1-.548-1.606c-1.2-2.737-4.183-2.608-6.648-1.943a30.649,30.649,0,0,0-12.179,6.452,36.384,36.384,0,0,0-8.569,11.669c-1.12,2.306,2.328,4.337,3.454,2.019Z"/><path class="c" d="M258.139,198.7a56.011,56.011,0,0,1,9.895,3.854,29.148,29.148,0,0,1,4.264,2.535c1.538,1.167,2.992,2.472,4.432,3.755,1.917,1.707,4.756-1.112,2.829-2.828q-2.231-1.986-4.559-3.857a29.237,29.237,0,0,0-4.947-3.059,61.776,61.776,0,0,0-10.851-4.258c-2.474-.73-3.53,3.129-1.063,3.858Z"/><path class="c" d="M203.2,210.565c5.407-5.581,12.485-9.276,19.651-12.089a2.059,2.059,0,0,0,1.4-2.46,2.014,2.014,0,0,0-2.46-1.4c-7.814,3.067-15.513,7.024-21.417,13.117-1.792,1.85,1.033,4.682,2.829,2.829Z"/><path class="b" d="M192.822,211.78c.012-4,5.626-9.924,12.745-9.32,4.509.382,6.11-.466,9.348,2.694,2.947,2.875,3.635,7.086,3.384,11.211-.057.565-.167,1.728-.167,1.728-.188,2-.828,3.555-2.416,4.3a3.837,3.837,0,0,1-4.5-.967c-.122,1.892-1.1,3.121-2.8,3.224s-3.521-.747-3.866-2.28a3.069,3.069,0,0,1-3.142,1.429c-1.078-.211-2.856-1.169-2.991-2.481-.481,1.3-2.614,1.263-3.9.327s-1.512-2.7-1.542-4.293-.189-4.279-.157-5.57"/><path class="c" d="M194.822,211.78c.051-1.845,1.731-3.925,3.353-5.155a11.086,11.086,0,0,1,3.934-1.9,15.612,15.612,0,0,1,4.762-.18c2.529.119,4.4-.06,6.349,1.756,2.531,2.356,3.192,5.731,3.12,9.066a12.592,12.592,0,0,1-.513,4.085c-.579,1.482-2.095,1.61-3.193.559a2.026,2.026,0,0,0-3.414,1.414c-.056.585-.21,1.09-.8,1.224-.628.142-1.74-.147-1.937-.811a2.024,2.024,0,0,0-3.656-.478c-.138.262-.04.257-.441.383a1.322,1.322,0,0,1-.812.031c-.507-.137-1.12-.45-1.225-.988a2.019,2.019,0,0,0-3.655-.478c-.183.377.107.106-.12.021-.3-.112-.627-.091-.9-.312-.628-.511-.654-1.581-.687-2.323-.088-1.964-.2-3.947-.167-5.913.041-2.575-3.959-2.576-4,0-.024,1.547.078,3.094.13,4.639a12.042,12.042,0,0,0,.83,4.959c1.4,2.9,6.672,4.445,8.367.948l-3.656-.478c.833,4.3,7.725,5.433,9.789,1.53l-3.656-.478a5.633,5.633,0,0,0,6.1,3.715c2.825-.288,4.24-2.558,4.49-5.191l-3.414,1.414a5.96,5.96,0,0,0,6.68,1.381,6.293,6.293,0,0,0,3.482-4.865c.708-4.111.573-8.612-1.3-12.4a11,11,0,0,0-9.216-6.317c-4.163-.24-8.135-.454-11.908,1.645-3.393,1.888-6.612,5.431-6.724,9.5-.071,2.575,3.929,2.573,4,0Z"/><path class="c" d="M213.22,221.424c.089-2.54.153-5.1.03-7.639a2,2,0,1,0-4,0c.123,2.539.059,5.1-.03,7.639a2.016,2.016,0,0,0,2,2,2.041,2.041,0,0,0,2-2Z"/><path class="c" d="M206.623,221.737a61.444,61.444,0,0,0,.092-7.981,2,2,0,0,0-4,0,61.444,61.444,0,0,1-.092,7.981,2.014,2.014,0,0,0,2,2,2.043,2.043,0,0,0,2-2Z"/><path class="c" d="M200.623,220.626a53.374,53.374,0,0,0,.138-6.285,2,2,0,0,0-4,0,53.374,53.374,0,0,1-.138,6.285,2.01,2.01,0,0,0,2,2,2.048,2.048,0,0,0,2-2Z"/><path class="b" d="M288.672,211.78c-.012-4-5.627-9.924-12.746-9.32-4.508.382-6.109-.466-9.348,2.694-2.947,2.875-3.634,7.086-3.383,11.211.057.565.166,1.728.166,1.728.189,2,.828,3.555,2.417,4.3a3.837,3.837,0,0,0,4.5-.967c.122,1.892,1.1,3.121,2.8,3.224s3.52-.747,3.866-2.28a3.069,3.069,0,0,0,3.142,1.429c1.078-.211,2.856-1.169,2.991-2.481.481,1.3,2.614,1.263,3.9.327s1.511-2.7,1.542-4.293.189-4.279.157-5.57"/><path class="c" d="M290.672,211.78c-.1-3.617-2.646-6.692-5.466-8.705a14.176,14.176,0,0,0-5.625-2.4,30.544,30.544,0,0,0-6.413-.086,12.418,12.418,0,0,0-4.816.848,11.983,11.983,0,0,0-4.756,4.193c-2.46,3.585-2.677,8.156-2.246,12.338.234,2.274.864,4.489,2.867,5.83a5.937,5.937,0,0,0,7.471-.964l-3.414-1.414c.25,2.634,1.665,4.9,4.489,5.191a5.631,5.631,0,0,0,6.1-3.715l-3.655.478c2.064,3.9,8.956,2.773,9.788-1.53l-3.655.478c1.694,3.5,6.964,1.955,8.366-.948a12.04,12.04,0,0,0,.831-4.959c.052-1.545.154-3.092.13-4.639-.041-2.571-4.041-2.579-4,0,.031,1.966-.079,3.949-.167,5.913a3.454,3.454,0,0,1-.572,2.2,1.7,1.7,0,0,1-.968.437c-.32.063.011.337-.166-.028a2.019,2.019,0,0,0-3.656.478c-.1.539-.718.851-1.224.988a1.158,1.158,0,0,1-.657.011c-.447-.117-.468-.183-.6-.425a2.022,2.022,0,0,0-3.656.478c-.2.664-1.309.953-1.937.811-.59-.134-.743-.635-.8-1.224a2.027,2.027,0,0,0-3.414-1.414c-.923.884-2.3,1.052-3.012-.172a7.518,7.518,0,0,1-.616-3.1c-.286-3.193-.01-6.86,2.093-9.448a7.663,7.663,0,0,1,2.919-2.327,9.439,9.439,0,0,1,3.228-.378,29.569,29.569,0,0,1,4.778-.093,11.1,11.1,0,0,1,7.166,4.242,6.013,6.013,0,0,1,1.256,3.046c.071,2.569,4.071,2.579,4,0Z"/><path class="c" d="M272.274,221.424c-.089-2.54-.153-5.1-.03-7.639a2.013,2.013,0,0,0-2-2,2.044,2.044,0,0,0-2,2c-.123,2.539-.059,5.1.03,7.639a2,2,0,0,0,4,0Z"/><path class="c" d="M278.871,221.737a61.444,61.444,0,0,1-.093-7.981,2.007,2.007,0,0,0-2-2,2.052,2.052,0,0,0-2,2,61.444,61.444,0,0,0,.093,7.981,2,2,0,0,0,4,0Z"/><path class="c" d="M284.871,220.626a53.591,53.591,0,0,1-.139-6.285,2.013,2.013,0,0,0-2-2,2.044,2.044,0,0,0-2,2,53.591,53.591,0,0,0,.139,6.285,2.124,2.124,0,0,0,.586,1.414,2,2,0,0,0,3.414-1.414Z"/><path class="c" d="M234.631,189.291a9.719,9.719,0,0,0,11.626,0,2,2,0,1,0-2.828-2.829c-.077.075-.365.305-.034.049s-.03.011-.127.071c-.114.07-.231.134-.351.194-.079.04-.168.072-.244.115.093-.053.475-.181.16-.073a8.332,8.332,0,0,1-1.17.32c-.064.012-.129.024-.194.034q-.228.036.193-.023a1.167,1.167,0,0,1-.36.036c-.285.024-.572.035-.858.036-.262,0-.525-.009-.786-.029a3.751,3.751,0,0,0-.434-.043c.192-.009.366.055.063,0a7.143,7.143,0,0,1-1.186-.313c-.16-.058-.419-.226.113.055-.067-.035-.138-.062-.205-.095-.133-.066-.263-.136-.39-.214-.1-.06-.185-.132-.281-.191.581.357.283.229.122.071a2,2,0,0,0-2.829,2.829Z"/><path class="c" d="M239.349,177.1a23.021,23.021,0,0,1,.545,2.49l-.072-.532a1.524,1.524,0,0,1,.01.344l.071-.532a.816.816,0,0,1-.038.155l.2-.478a.649.649,0,0,1-.055.1l.313-.405a.511.511,0,0,1-.081.08l.405-.313a1.628,1.628,0,0,1-.2.1l.478-.2a1.421,1.421,0,0,1-.332.1l.531-.071a1.357,1.357,0,0,1-.312,0l.532.071c-.118-.016-.233-.045-.351-.06a2.244,2.244,0,0,0-1.541.2,2,2,0,0,0-.718,2.737l.313.4a2,2,0,0,0,.883.515c.332.044.654.127.992.142a3.292,3.292,0,0,0,1.544-.379,2.389,2.389,0,0,0,1.276-1.554,3.584,3.584,0,0,0-.012-1.593c-.136-.8-.321-1.6-.527-2.385a2,2,0,0,0-2.461-1.4,2.025,2.025,0,0,0-1.2.92,2.108,2.108,0,0,0-.2,1.541Z"/><path class="c" d="M225.658,169.733c-.448,1.456-.156,4.805,2.6,5.09,3.645-.022,3.839-4.071,2.612-5.975C229.867,167.289,226.913,166.641,225.658,169.733Z"/><path class="c" d="M254.731,169.733c.448,1.456.156,4.805-2.6,5.09-3.646-.022-3.84-4.071-2.613-5.975C250.521,167.289,253.475,166.641,254.731,169.733Z"/><path class="c" d="M144.92,213.013q-6.966.083-13.932.092-2.916,0-5.831-.022c-.6,0-2.6.4-2.145-.644a10.245,10.245,0,0,1,1.675-1.936q1.011-1.164,2.037-2.316,1.885-2.112,3.844-4.158a106.667,106.667,0,0,1,8.547-7.989,110.718,110.718,0,0,1,12.084-8.69c2.176-1.364.171-4.826-2.019-3.454a113.16,113.16,0,0,0-21.96,17.848c-1.48,1.556-2.922,3.15-4.341,4.763-1.327,1.508-3.344,3.184-3.855,5.184a4.389,4.389,0,0,0,2.316,4.928c1.788.867,4.313.47,6.249.479,5.777.025,11.554-.017,17.331-.085,2.572-.03,2.579-4.03,0-4Z"/><path class="c" d="M218.286,215.091c14.893-.532,29.778-1.057,44.656-1.912,2.559-.147,2.576-4.148,0-4-14.878.855-29.763,1.38-44.656,1.912-2.566.092-2.579,4.092,0,4Z"/><path class="c" d="M158.623,216.812q16.9-.3,33.785-.838c2.568-.082,2.579-4.082,0-4q-16.89.54-33.785.838c-2.571.045-2.579,4.045,0,4Z"/><path class="c" d="M288.483,211.626c18.377-1.192,36.77-2.464,55.077-4.5a2.061,2.061,0,0,0,2-2,2.013,2.013,0,0,0-2-2c-18.307,2.032-36.7,3.3-55.077,4.5-2.556.166-2.575,4.168,0,4Z"/><path class="g" d="M405.164,71.539A17.011,17.011,0,0,0,403.9,76.8a16.52,16.52,0,0,0,1.636,7.2,17.813,17.813,0,0,0,6.259,6.53c1.866,1.066,6.551,2.911,9.685,2.308,3.336-3.593,3.482-9.314,2.7-14.141-.7-4.376-5.226-9.185-9.045-11.433-1.362,2.432-2.335,4.589-3.625,6.81C410.368,73.592,407.457,72.456,405.164,71.539Z"/><path class="g" d="M23.3,43.859a24.032,24.032,0,0,1,4.547-2.4,15.68,15.68,0,0,1,7.018-.175,14.858,14.858,0,0,1,6.368,3.3c1.577,1.3,3.813,4.26,3.99,7.288-2.532,3.913-6.908,7.357-11.537,7.767-4.2.372-9.034-2.606-12-5.6,1.922-1.823,3.682-3.222,5.428-4.929C26.407,48.174,24.681,45.758,23.3,43.859Z"/><path class="h" d="M2.625,112.53a19.273,19.273,0,0,1-.47-6.978,12.552,12.552,0,0,1,2.56-6.814c4.668-6.36,11.625-7.86,19.118-7.966a3,3,0,0,1,1.1.124c2.256.845,3.34,6.643,3.651,8.682a20.633,20.633,0,0,1-.866,10.067c-1.946,5.365-7.055,9.751-12.428,11.675-1.137-3.4-1.442-6.911-1.973-10.461C10.677,111.188,6.013,112.384,2.625,112.53Z"/><path class="h" d="M394.582,28.167a27.548,27.548,0,0,1-.011,5.876A17.972,17.972,0,0,1,391,41.229a17.018,17.018,0,0,1-6.739,4.671c-2.155.9-6.344,1.574-9.5.134-2.6-4.651-3.741-10.915-1.681-15.812,1.868-4.439,7.465-7.735,12.074-9.129.815,2.918,1.287,5.444,2.079,8.121C388.559,29,391.925,28.547,394.582,28.167Z"/><path class="h" d="M68.916,22.3a36.674,36.674,0,0,1,1.716-7.651c1.21-3.089,4.55-6.6,6.739-8.327A22.691,22.691,0,0,1,87.5,2.183c3.067-.548,8.721-.215,12.413,2.575,2.042,6.811,1.714,15.3-2.388,21.085-3.717,5.243-11.963,7.918-18.372,8.4-.216-4.037-.1-7.465-.358-11.182C77,22.955,72.488,22.57,68.916,22.3Z"/><path class="c" d="M24.309,45.586a14.384,14.384,0,0,1,5.348-2.507,13.363,13.363,0,0,1,5.646.382c3.61,1.08,7.576,4.43,7.92,8.415l.273-1.01c-2.155,3.259-5.7,6.319-9.721,6.769-3.99.447-7.987-2.34-10.672-5.006v2.828c1.781-1.674,3.671-3.229,5.428-4.929a2.013,2.013,0,0,0,.313-2.423c-1.3-1.732-2.545-3.5-3.817-5.256a2.059,2.059,0,0,0-2.737-.717,2.016,2.016,0,0,0-.717,2.736c1.272,1.751,2.518,3.524,3.817,5.255L25.7,47.7c-1.757,1.7-3.646,3.254-5.427,4.929a2.024,2.024,0,0,0,0,2.828c2.891,2.872,6.7,5.418,10.8,6.046,4.284.655,8.363-1.127,11.626-3.811a17.416,17.416,0,0,0,4.25-4.807c.984-1.827-.59-4.909-1.568-6.469a16.037,16.037,0,0,0-10.117-7.081,18.853,18.853,0,0,0-6.67-.113,17.779,17.779,0,0,0-6.3,2.91C20.13,43.517,22.134,46.981,24.309,45.586Z"/><path class="c" d="M4.554,112A14.224,14.224,0,0,1,7.237,98.781a18.239,18.239,0,0,1,11.185-5.617c1.04-.164,2.093-.252,3.143-.313.5-.029,1-.049,1.508-.063.237-.007.52.015.76-.016.575-.075.163-.127.438.024-.151-.082.237.268.278.324a5.825,5.825,0,0,1,.578,1.043,15.309,15.309,0,0,1,.813,2.454c1.106,4.193,1.39,8.753-.281,12.845-1.9,4.642-6.272,8.224-10.9,9.929l2.461,1.4a63.816,63.816,0,0,1-1.974-10.461,1.986,1.986,0,0,0-1.928-1.468c-3.575.473-7.083,1.48-10.693,1.671-2.561.136-2.577,4.137,0,4,3.626-.192,7.11-1.2,10.693-1.671l-1.929-1.469a63.9,63.9,0,0,0,1.973,10.461,2.021,2.021,0,0,0,2.461,1.4c5.331-1.964,10.282-5.732,12.88-10.881,2.53-5.015,2.544-10.736,1.272-16.1-.494-2.085-1.166-4.428-2.644-6.046-1.8-1.97-4.666-1.485-7.069-1.271-5.38.477-10.641,2.042-14.671,5.793a17.02,17.02,0,0,0-4.867,7.537A20.826,20.826,0,0,0,.7,113.062C1.359,115.547,5.219,114.493,4.554,112Z"/><path class="c" d="M392.582,28.167c.2,2.345.411,4.844-.408,7.095a15.281,15.281,0,0,1-3.717,5.755c-3.089,2.9-8.526,5.068-12.69,3.29l.718.717a18.083,18.083,0,0,1-1.042-14.562c1.583-4.01,6.394-6.252,10.24-7.44l-2.46-1.4c.741,2.7,1.3,5.436,2.079,8.121a2.062,2.062,0,0,0,2.46,1.4c2.444-.388,4.9-.7,7.351-1.047a2.013,2.013,0,0,0,1.4-2.461,2.052,2.052,0,0,0-2.46-1.4c-2.45.35-4.907.66-7.351,1.047l2.46,1.4c-.78-2.684-1.338-5.426-2.079-8.121a2.024,2.024,0,0,0-2.46-1.4c-4.1,1.266-8.333,3.354-11.056,6.769-2.929,3.673-3.5,8.862-2.937,13.4a21.738,21.738,0,0,0,2.047,7.032c1.153,2.32,4.487,2.569,6.825,2.493a18.116,18.116,0,0,0,12.644-5.9,20.9,20.9,0,0,0,3.888-6.633c.926-2.587.777-5.463.551-8.158C396.368,25.62,392.366,25.6,392.582,28.167Z"/><path class="c" d="M70.845,22.828c.449-3.338.966-6.844,2.874-9.693a20.884,20.884,0,0,1,6.951-6.6c5.4-2.988,13-3.861,18.236-.046l-.919-1.2C99.831,11.6,99.84,19.5,95.7,24.966c-3.653,4.829-10.793,6.813-16.549,7.276l2,2c-.189-3.725-.114-7.459-.358-11.182a2.055,2.055,0,0,0-2-2c-3.3-.2-6.587-.51-9.881-.764-2.567-.2-2.554,3.8,0,4,3.294.254,6.584.564,9.881.764l-2-2c.244,3.723.169,7.457.358,11.182a2.022,2.022,0,0,0,2,2c5.8-.467,11.86-2.143,16.535-5.733,5.009-3.845,7.176-10.036,7.426-16.19a31.284,31.284,0,0,0-1.066-9.37c-.436-1.61-1.547-2.349-3-3.062A17.86,17.86,0,0,0,94.363.351,23.548,23.548,0,0,0,76.7,4.333a26.455,26.455,0,0,0-6.837,7.416c-1.816,3-2.412,6.6-2.872,10.016a2.069,2.069,0,0,0,1.4,2.46A2.013,2.013,0,0,0,70.845,22.828Z"/><path class="c" d="M403.437,70.529a16.944,16.944,0,0,0-1.559,7.116,18.672,18.672,0,0,0,1.687,6.83,17.809,17.809,0,0,0,9.339,8.787,21.129,21.129,0,0,0,6.262,1.646,6.057,6.057,0,0,0,3.319-.344,7.5,7.5,0,0,0,2.271-2.944c2.141-4.129,2.216-9.306,1.293-13.785-1.061-5.143-5.553-9.677-9.9-12.3a2.026,2.026,0,0,0-2.736.717c-1.248,2.25-2.345,4.579-3.624,6.811l2.258-.919c-2.1-.878-4.231-1.69-6.347-2.535a2.014,2.014,0,0,0-2.46,1.4,2.048,2.048,0,0,0,1.4,2.46c2.115.845,4.245,1.658,6.347,2.535a2,2,0,0,0,2.258-.919c1.28-2.232,2.377-4.561,3.625-6.811l-2.737.718c3.559,2.144,7.3,5.838,8.1,10.073.75,4,.7,9.153-2.161,12.36l.883-.514c-2.132.351-4.6-.512-6.539-1.322a14.7,14.7,0,0,1-5.2-3.811,12.5,12.5,0,0,1-2.316-13.228,2.063,2.063,0,0,0-.718-2.736A2.014,2.014,0,0,0,403.437,70.529Z"/></svg>